<svg width="16" height="14" viewBox="0 0 16 14" fill="none" xmlns="http://www.w3.org/2000/svg">
<path d="M0.961689 8.12302C1.02714 8.13364 1.0934 8.13855 1.1597 8.13769H12.4474L12.2013 8.25217C11.9607 8.36605 11.7418 8.52101 11.5544 8.71009L8.3891 11.8754C7.97221 12.2734 7.90217 12.9136 8.2231 13.3923C8.59662 13.9024 9.31294 14.0132 9.82309 13.6396C9.86431 13.6094 9.90346 13.5765 9.94029 13.5411L15.6642 7.81715C16.1116 7.37032 16.112 6.64549 15.6651 6.19816L15.6642 6.19727L9.94029 0.473311C9.4926 0.0268784 8.76777 0.0278797 8.3213 0.475565C8.28617 0.510805 8.25337 0.548292 8.2231 0.58779C7.90217 1.06649 7.97221 1.70668 8.3891 2.10464L11.5487 5.27571C11.7167 5.44386 11.9098 5.58483 12.1211 5.69356L12.4646 5.84811H1.2227C0.637891 5.82639 0.124809 6.2349 0.014945 6.80973C-0.0862617 7.43382 0.337599 8.02178 0.961689 8.12302Z" fill="white"/>
</svg>
