<svg width="16" height="17" viewBox="0 0 16 17" fill="none" xmlns="http://www.w3.org/2000/svg">
<g opacity="0.5" clip-path="url(#clip0_133_1587)">
<path d="M12.1875 7.93701C12.1875 6.64476 11.136 5.59326 9.84375 5.59326H7.96875C6.6765 5.59326 5.625 6.64476 5.625 7.93701C5.625 8.19607 5.83469 8.40576 6.09375 8.40576H11.7188C11.9778 8.40576 12.1875 8.19607 12.1875 7.93701Z" fill="black"/>
<path d="M3.28125 1.81201H7.03125C7.80666 1.81201 8.4375 2.44289 8.4375 3.21826V3.80482C8.0425 3.94714 7.72781 4.25904 7.58631 4.65576H10.2262C10.0847 4.25904 9.77003 3.94714 9.375 3.80482V3.21826C9.375 1.92601 8.3235 0.874512 7.03125 0.874512H3.28125C1.989 0.874512 0.9375 1.92601 0.9375 3.21826V6.53076H0.46875C0.209688 6.53076 0 6.74045 0 6.99951V16.4058C0 16.6648 0.209688 16.8745 0.46875 16.8745H2.34375C2.60281 16.8745 2.8125 16.6648 2.8125 16.4058V12.1558H3.75V12.6245C3.75 12.8836 3.95969 13.0933 4.21875 13.0933C4.47781 13.0933 4.6875 12.8836 4.6875 12.6245V10.7495C4.6875 10.4904 4.47781 10.2808 4.21875 10.2808C3.95969 10.2808 3.75 10.4904 3.75 10.7495V11.2183H2.8125V6.99951C2.8125 6.74045 2.60281 6.53076 2.34375 6.53076H1.875V3.21826C1.875 2.44286 2.50588 1.81201 3.28125 1.81201Z" fill="black"/>
<path d="M7.03125 11.2183C7.29031 11.2183 7.5 11.0086 7.5 10.7495V9.81201C7.5 9.55295 7.29031 9.34326 7.03125 9.34326C6.77219 9.34326 6.5625 9.55295 6.5625 9.81201V10.7495C6.5625 11.0086 6.77219 11.2183 7.03125 11.2183ZM8.90625 11.2183C9.16531 11.2183 9.375 11.0086 9.375 10.7495V9.81201C9.375 9.55295 9.16531 9.34326 8.90625 9.34326C8.64719 9.34326 8.4375 9.55295 8.4375 9.81201V10.7495C8.4375 11.0086 8.64719 11.2183 8.90625 11.2183ZM11.25 9.81201C11.25 9.55295 11.0403 9.34326 10.7812 9.34326C10.5222 9.34326 10.3125 9.55295 10.3125 9.81201V10.7495C10.3125 11.0086 10.5222 11.2183 10.7812 11.2183C11.0403 11.2183 11.25 11.0086 11.25 10.7495V9.81201ZM6.5625 13.562C6.5625 13.8211 6.77219 14.0308 7.03125 14.0308C7.29031 14.0308 7.5 13.8211 7.5 13.562V12.6245C7.5 12.3654 7.29031 12.1558 7.03125 12.1558C6.77219 12.1558 6.5625 12.3654 6.5625 12.6245V13.562ZM8.4375 13.562C8.4375 13.8211 8.64719 14.0308 8.90625 14.0308C9.16531 14.0308 9.375 13.8211 9.375 13.562V12.6245C9.375 12.3654 9.16531 12.1558 8.90625 12.1558C8.64719 12.1558 8.4375 12.3654 8.4375 12.6245V13.562ZM10.7812 12.1558C10.5222 12.1558 10.3125 12.3654 10.3125 12.6245V13.562C10.3125 13.8211 10.5222 14.0308 10.7812 14.0308C11.0403 14.0308 11.25 13.8211 11.25 13.562V12.6245C11.25 12.3654 11.0403 12.1558 10.7812 12.1558ZM9.84375 16.8745C10.1028 16.8745 10.3125 16.6648 10.3125 16.4058V15.437C10.3125 15.1779 10.1028 14.9683 9.84375 14.9683C9.58469 14.9683 9.375 15.1779 9.375 15.437V16.4058C9.375 16.6648 9.58469 16.8745 9.84375 16.8745ZM7.96875 16.8745C8.22781 16.8745 8.4375 16.6648 8.4375 16.4058V15.437C8.4375 15.1779 8.22781 14.9683 7.96875 14.9683C7.70969 14.9683 7.5 15.1779 7.5 15.437V16.4058C7.5 16.6648 7.70969 16.8745 7.96875 16.8745Z" fill="black"/>
</g>
<defs>
<clipPath id="clip0_133_1587">
<rect width="16" height="16" fill="white" transform="translate(0 0.874512)"/>
</clipPath>
</defs>
</svg>
