<svg width="16" height="17" viewBox="0 0 16 17" fill="none" xmlns="http://www.w3.org/2000/svg">
<g opacity="0.5" clip-path="url(#clip0_133_1576)">
<path d="M16 8.48711V13.2184C16 13.5215 15.8469 13.6746 15.5469 13.6777H14.85C14.5594 13.6777 14.4 13.5152 14.4 13.2215V12.084H1.60312V13.2527C1.6 13.5059 1.44063 13.6715 1.19375 13.6746C0.934375 13.6777 0.675 13.6777 0.415625 13.6746C0.16875 13.6715 0.009375 13.509 0 13.2621V4.49961C0.00625 4.24336 0.165625 4.07773 0.421875 4.07461C0.66875 4.07148 0.91875 4.07148 1.16562 4.07461C1.44375 4.07773 1.60312 4.23711 1.60312 4.51836V9.66523H7.2V6.16211C7.2 5.82148 7.35 5.67461 7.68437 5.67461H13.1687C14.6438 5.67773 15.8188 6.72773 15.9844 8.19023C15.9969 8.28711 16 8.38711 16 8.48711Z" fill="black"/>
<path d="M4.40332 4.87451C5.50644 4.87451 6.40332 5.77139 6.4002 6.87451C6.39707 7.97764 5.50332 8.87451 4.4002 8.87139C3.29707 8.87139 2.40332 7.97451 2.40332 6.87139C2.40332 5.76826 3.29707 4.87451 4.40332 4.87451Z" fill="black"/>
</g>
<defs>
<clipPath id="clip0_133_1576">
<rect width="16" height="16" fill="white" transform="translate(0 0.874512)"/>
</clipPath>
</defs>
</svg>
