<svg width="16" height="17" viewBox="0 0 16 17" fill="none" xmlns="http://www.w3.org/2000/svg">
<g opacity="0.5">
<path d="M5.06729 9.67467C4.81156 9.67467 4.56063 9.55253 4.40569 9.32533C3.32009 7.7328 3.23929 5.62373 4.20009 3.95173C4.25239 3.86059 4.32215 3.78066 4.40538 3.71651C4.4886 3.65236 4.58366 3.60525 4.68512 3.57788C4.78657 3.55051 4.89243 3.54341 4.99662 3.557C5.10082 3.57059 5.20132 3.60459 5.29236 3.65707C5.38348 3.70939 5.46338 3.77916 5.52751 3.86239C5.59165 3.94562 5.63874 4.04067 5.66611 4.14212C5.69348 4.24356 5.70058 4.34941 5.68701 4.4536C5.67344 4.55779 5.63946 4.65828 5.58703 4.74933C4.92996 5.8928 4.98489 7.3352 5.72729 8.424C5.80923 8.54417 5.85685 8.68441 5.86504 8.82962C5.87323 8.97484 5.84168 9.11954 5.77377 9.24816C5.70587 9.37678 5.60419 9.48446 5.47966 9.55961C5.35513 9.63476 5.21274 9.67454 5.06729 9.67467ZM10.9324 9.67467C10.7869 9.6746 10.6443 9.63486 10.5197 9.55975C10.3952 9.48463 10.2935 9.37697 10.2256 9.24836C10.1576 9.11975 10.1261 8.97506 10.1343 8.82985C10.1425 8.68464 10.1901 8.54441 10.2721 8.42427C11.0124 7.33813 11.0689 5.89813 10.4164 4.756C10.3137 4.57196 10.2878 4.35483 10.3442 4.15179C10.4007 3.94875 10.535 3.7762 10.718 3.67162C10.901 3.56705 11.1178 3.5389 11.3214 3.5933C11.5251 3.64769 11.699 3.78024 11.8054 3.96213C12.7598 5.63173 12.6769 7.7368 11.594 9.32507C11.5207 9.43299 11.422 9.52129 11.3067 9.58224C11.1913 9.64319 11.0628 9.67492 10.9324 9.67467Z" fill="black"/>
<path d="M13.0624 11.8002C12.9041 11.8004 12.7493 11.7536 12.6176 11.6657C12.4859 11.5779 12.3832 11.4529 12.3227 11.3066C12.2621 11.1604 12.2463 10.9994 12.2773 10.8442C12.3083 10.6889 12.3847 10.5464 12.4968 10.4346C14.68 8.25111 14.68 4.69831 12.4968 2.51484C12.4225 2.44059 12.3635 2.35243 12.3233 2.25538C12.2831 2.15833 12.2624 2.0543 12.2624 1.94924C12.2624 1.84419 12.2831 1.74016 12.3233 1.64311C12.3635 1.54606 12.4225 1.45789 12.4968 1.38364C12.5711 1.30932 12.6592 1.25036 12.7563 1.21013C12.8533 1.1699 12.9573 1.14919 13.0624 1.14919C13.1675 1.14919 13.2715 1.1699 13.3685 1.21013C13.4656 1.25036 13.5538 1.30932 13.628 1.38364C16.4349 4.19084 16.4349 8.75858 13.628 11.566C13.5538 11.6405 13.4657 11.6995 13.3686 11.7397C13.2715 11.7799 13.1675 11.8003 13.0624 11.8002ZM2.9376 11.8002C2.83253 11.8003 2.72847 11.7797 2.63141 11.7394C2.53434 11.6992 2.44618 11.6402 2.372 11.5658C-0.435198 8.75831 -0.435198 4.19084 2.372 1.38338C2.44625 1.30905 2.53442 1.25009 2.63147 1.20986C2.72852 1.16963 2.83254 1.14893 2.9376 1.14893C3.04266 1.14893 3.14669 1.16963 3.24373 1.20986C3.34078 1.25009 3.42895 1.30905 3.5032 1.38338C3.57753 1.45762 3.63649 1.54579 3.67672 1.64284C3.71695 1.73989 3.73765 1.84392 3.73765 1.94898C3.73765 2.05403 3.71695 2.15806 3.67672 2.25511C3.63649 2.35216 3.57753 2.44033 3.5032 2.51458C1.32 4.69804 1.32 8.25084 3.5032 10.4343C3.61531 10.5461 3.69171 10.6886 3.72271 10.8439C3.75371 10.9991 3.73792 11.1601 3.67734 11.3064C3.61676 11.4526 3.51412 11.5776 3.38243 11.6655C3.25073 11.7533 3.09592 11.8004 2.9376 11.8002Z" fill="black"/>
<path d="M7.99984 7.80778C8.73622 7.80778 9.33317 7.21083 9.33317 6.47445C9.33317 5.73807 8.73622 5.14111 7.99984 5.14111C7.26346 5.14111 6.6665 5.73807 6.6665 6.47445C6.6665 7.21083 7.26346 7.80778 7.99984 7.80778Z" fill="black"/>
<path d="M7.8119 8.33154C7.9371 8.34395 8.06323 8.34395 8.18843 8.33154L9.52523 13.6745H6.4751L7.8119 8.33154Z" fill="black"/>
<path d="M11.2 14.208H4.8C4.35817 14.208 4 14.5662 4 15.008V15.5413C4 15.9832 4.35817 16.3413 4.8 16.3413H11.2C11.6418 16.3413 12 15.9832 12 15.5413V15.008C12 14.5662 11.6418 14.208 11.2 14.208Z" fill="black"/>
</g>
</svg>
