<svg width="16" height="17" viewBox="0 0 16 17" fill="none" xmlns="http://www.w3.org/2000/svg">
<g opacity="0.5">
<path d="M15.485 10.7869L14.855 9.11186C14.8016 8.96864 14.7057 8.84519 14.5801 8.75805C14.4546 8.67091 14.3053 8.62426 14.1525 8.62435H1.8475C1.69466 8.62426 1.54545 8.67091 1.41988 8.75805C1.29431 8.84519 1.1984 8.96864 1.145 9.11186L0.515002 10.7869C0.504974 10.8149 0.499898 10.8445 0.500002 10.8744V12.3744C0.500595 12.5731 0.579803 12.7635 0.720327 12.904C0.860851 13.0446 1.05127 13.1238 1.25 13.1244H14.75C14.9487 13.1238 15.1392 13.0446 15.2797 12.904C15.4202 12.7635 15.4994 12.5731 15.5 12.3744V10.8744C15.5001 10.8445 15.495 10.8149 15.485 10.7869ZM4.75 12.1244C4.44001 12.1247 4.14097 12.0098 3.91092 11.802C3.68087 11.5942 3.53623 11.3084 3.50507 11C3.47392 10.6916 3.55848 10.3826 3.74233 10.133C3.92618 9.88341 4.19621 9.71104 4.5 9.64935V10.8744C4.5 10.9407 4.52634 11.0042 4.57322 11.0511C4.62011 11.098 4.6837 11.1244 4.75 11.1244C4.81631 11.1244 4.87989 11.098 4.92678 11.0511C4.97366 11.0042 5 10.9407 5 10.8744V9.64935C5.30379 9.71104 5.57382 9.88341 5.75767 10.133C5.94153 10.3826 6.02608 10.6916 5.99493 11C5.96378 11.3084 5.81913 11.5942 5.58908 11.802C5.35903 12.0098 5.05999 12.1247 4.75 12.1244ZM11.25 12.1244C10.94 12.1247 10.641 12.0098 10.4109 11.802C10.1809 11.5942 10.0362 11.3084 10.0051 11C9.97392 10.6916 10.0585 10.3826 10.2423 10.133C10.4262 9.88341 10.6962 9.71104 11 9.64935V10.8744C11 10.9407 11.0263 11.0042 11.0732 11.0511C11.1201 11.098 11.1837 11.1244 11.25 11.1244C11.3163 11.1244 11.3799 11.098 11.4268 11.0511C11.4737 11.0042 11.5 10.9407 11.5 10.8744V9.64935C11.8038 9.71104 12.0738 9.88341 12.2577 10.133C12.4415 10.3826 12.5261 10.6916 12.4949 11C12.4638 11.3084 12.3191 11.5942 12.0891 11.802C11.859 12.0098 11.56 12.1247 11.25 12.1244ZM3.5 5.87435C3.49664 5.67905 3.53798 5.48556 3.62087 5.30869C3.70376 5.13181 3.826 4.97623 3.97825 4.85385C4.20325 4.63535 4.36575 4.47735 4.255 3.92335C4.24554 3.87588 4.25007 3.82667 4.26804 3.78172C4.28601 3.73677 4.31664 3.698 4.35622 3.67012C4.3958 3.64224 4.44262 3.62646 4.491 3.62468C4.53938 3.6229 4.58723 3.63521 4.62875 3.6601C4.6845 3.6936 6 4.4986 6 5.87435C6.00012 6.09802 5.9401 6.31761 5.82623 6.51012C5.71236 6.70263 5.54882 6.86098 5.35275 6.96861C5.3187 6.98726 5.28078 6.99772 5.24198 6.99917C5.20318 7.00062 5.16458 6.99301 5.12924 6.97695C5.09389 6.96089 5.06277 6.93682 5.03834 6.90664C5.01392 6.87647 4.99685 6.84102 4.9885 6.8031C4.93571 6.6259 4.85521 6.45816 4.75 6.3061C4.64485 6.45819 4.56435 6.62592 4.5115 6.8031C4.50315 6.84102 4.48609 6.87647 4.46166 6.90664C4.43723 6.93682 4.40611 6.96089 4.37077 6.97695C4.33542 6.99301 4.29682 7.00062 4.25802 6.99917C4.21923 6.99772 4.1813 6.98726 4.14725 6.96861C3.95118 6.86098 3.78764 6.70263 3.67377 6.51012C3.5599 6.31761 3.49988 6.09802 3.5 5.87435ZM10 5.87435C9.99664 5.67905 10.038 5.48556 10.1209 5.30869C10.2038 5.13181 10.326 4.97623 10.4783 4.85385C10.7033 4.63535 10.8658 4.47735 10.755 3.92335C10.7455 3.87588 10.7501 3.82667 10.768 3.78172C10.786 3.73677 10.8166 3.698 10.8562 3.67012C10.8958 3.64224 10.9426 3.62646 10.991 3.62468C11.0394 3.6229 11.0872 3.63521 11.1288 3.6601C11.1845 3.6936 12.5 4.4986 12.5 5.87435C12.5001 6.09802 12.4401 6.31761 12.3262 6.51012C12.2124 6.70263 12.0488 6.86098 11.8528 6.96861C11.8187 6.98726 11.7808 6.99772 11.742 6.99917C11.7032 7.00062 11.6646 6.99301 11.6292 6.97695C11.5939 6.96089 11.5628 6.93682 11.5383 6.90664C11.5139 6.87647 11.4969 6.84102 11.4885 6.8031C11.4357 6.6259 11.3552 6.45816 11.25 6.3061C11.1448 6.45819 11.0644 6.62592 11.0115 6.8031C11.0032 6.84102 10.9861 6.87647 10.9617 6.90664C10.9372 6.93682 10.9061 6.96089 10.8708 6.97695C10.8354 6.99301 10.7968 7.00062 10.758 6.99917C10.7192 6.99772 10.6813 6.98726 10.6473 6.96861C10.4512 6.86098 10.2876 6.70263 10.1738 6.51012C10.0599 6.31761 9.99988 6.09802 10 5.87435ZM11.5 7.87435V8.12435H11V7.87435C11 7.80805 11.0263 7.74446 11.0732 7.69758C11.1201 7.65069 11.1837 7.62435 11.25 7.62435C11.3163 7.62435 11.3799 7.65069 11.4268 7.69758C11.4737 7.74446 11.5 7.80805 11.5 7.87435ZM9.75 8.12435H9.046C9.09737 7.97853 9.19261 7.85217 9.31867 7.76265C9.44472 7.67312 9.59539 7.62481 9.75 7.62435H10C10.0663 7.62435 10.1299 7.65069 10.1768 7.69758C10.2237 7.74446 10.25 7.80805 10.25 7.87435C10.25 7.94066 10.2237 8.00425 10.1768 8.05113C10.1299 8.09802 10.0663 8.12435 10 8.12435H9.75ZM12.5 7.62435H12.75C12.9046 7.62481 13.0553 7.67312 13.1813 7.76265C13.3074 7.85217 13.4026 7.97853 13.454 8.12435H12.5C12.4337 8.12435 12.3701 8.09802 12.3232 8.05113C12.2763 8.00425 12.25 7.94066 12.25 7.87435C12.25 7.80805 12.2763 7.74446 12.3232 7.69758C12.3701 7.65069 12.4337 7.62435 12.5 7.62435ZM6 7.62435H6.25C6.40461 7.62481 6.55529 7.67312 6.68134 7.76265C6.80739 7.85217 6.90264 7.97853 6.954 8.12435H6C5.9337 8.12435 5.87011 8.09802 5.82322 8.05113C5.77634 8.00425 5.75 7.94066 5.75 7.87435C5.75 7.80805 5.77634 7.74446 5.82322 7.69758C5.87011 7.65069 5.9337 7.62435 6 7.62435ZM12.75 13.6244H14.75V13.8744C14.75 13.9407 14.7237 14.0042 14.6768 14.0511C14.6299 14.098 14.5663 14.1244 14.5 14.1244H13C12.9337 14.1244 12.8701 14.098 12.8232 14.0511C12.7763 14.0042 12.75 13.9407 12.75 13.8744V13.6244ZM1.25 13.6244H3.25V13.8744C3.25 13.9407 3.22366 14.0042 3.17678 14.0511C3.12989 14.098 3.06631 14.1244 3 14.1244H1.5C1.4337 14.1244 1.37011 14.098 1.32322 14.0511C1.27634 14.0042 1.25 13.9407 1.25 13.8744V13.6244ZM3.25 8.12435H2.546C2.59737 7.97853 2.69261 7.85217 2.81867 7.76265C2.94472 7.67312 3.09539 7.62481 3.25 7.62435H3.5C3.56631 7.62435 3.62989 7.65069 3.67678 7.69758C3.72366 7.74446 3.75 7.80805 3.75 7.87435C3.75 7.94066 3.72366 8.00425 3.67678 8.05113C3.62989 8.09802 3.56631 8.12435 3.5 8.12435H3.25ZM5 7.87435V8.12435H4.5V7.87435C4.5 7.80805 4.52634 7.74446 4.57322 7.69758C4.62011 7.65069 4.6837 7.62435 4.75 7.62435C4.81631 7.62435 4.87989 7.65069 4.92678 7.69758C4.97366 7.74446 5 7.80805 5 7.87435Z" fill="black"/>
</g>
</svg>
