<svg width="38" height="38" viewBox="0 0 38 38" fill="none" xmlns="http://www.w3.org/2000/svg">
<g clip-path="url(#clip0_135_1670)">
<path fill-rule="evenodd" clip-rule="evenodd" d="M19 36.1C28.4441 36.1 36.1 28.4443 36.1 19C36.1 9.55594 28.4443 1.89996 19 1.89996C9.55594 1.89996 1.89996 9.55594 1.89996 19C1.89996 28.4441 9.55594 36.1 19 36.1ZM19 38C29.4933 38 38 29.4933 38 19C38 8.50651 29.4933 0 19 0C8.50651 0 0 8.50651 0 19C0 29.4933 8.50651 38 19 38Z" fill="black"/>
<path fill-rule="evenodd" clip-rule="evenodd" d="M23.9373 18.9999L15.2 13.1751V24.8249L23.9373 18.9999ZM25.7025 17.8933C26.4923 18.4198 26.4923 19.5802 25.7025 20.1067L15.3676 26.9967C14.4838 27.586 13.2998 26.9522 13.2998 25.89V12.11C13.2998 11.0478 14.4838 10.4142 15.3676 11.0035L25.7025 17.8933Z" fill="black"/>
</g>
<defs>
<clipPath id="clip0_135_1670">
<rect width="38" height="38" fill="white"/>
</clipPath>
</defs>
</svg>
